<svg xmlns="http://www.w3.org/2000/svg" width="40" height="18" fill="none"><path fill="#fff" d="M8.116 2.931c.489-.589.73-1.345.67-2.108-.75.077-1.444.43-1.948.99a2.78 2.78 0 0 0-.7 2.012 2.3 2.3 0 0 0 1.98-.895zm.672 1.085c-1.085-.064-2.011.607-2.523.607s-1.31-.575-2.173-.575A3.2 3.2 0 0 0 1.377 5.71c-1.15 2.013-.323 4.982.83 6.61.543.799 1.214 1.693 2.076 1.661.83-.032 1.15-.539 2.14-.539s1.277.543 2.173.511c.896-.031 1.472-.798 2.011-1.628a6.4 6.4 0 0 0 .892-1.856 2.892 2.892 0 0 1-.35-5.142 2.97 2.97 0 0 0-2.363-1.31M18.1 1.749a3.8 3.8 0 0 1 3.993 3.96A3.84 3.84 0 0 1 18.037 9.7H15.45v4.12h-1.884V1.749zm-2.65 6.387h2.14c1.628 0 2.555-.894 2.555-2.395 0-1.533-.926-2.395-2.555-2.395h-2.174v4.79zm7.121 3.225c0-1.533 1.182-2.492 3.29-2.62l2.425-.123v-.67c0-.99-.67-1.565-1.756-1.565a1.68 1.68 0 0 0-1.852 1.277h-1.725c.096-1.597 1.473-2.778 3.641-2.778 2.14 0 3.513 1.118 3.513 2.906v6.067h-1.724v-1.437h-.033a3.13 3.13 0 0 1-2.778 1.597c-1.787-.003-3-1.089-3-2.654m5.715-.798v-.701l-2.173.128c-1.085.063-1.692.542-1.692 1.309s.638 1.277 1.596 1.277a2.11 2.11 0 0 0 2.27-2.013m3.418 6.547v-1.473q.286.04.575.033a1.477 1.477 0 0 0 1.564-1.246c0-.032.16-.542.16-.542L30.81 5.07h1.949l2.236 7.186h.032L37.26 5.07h1.916l-3.286 9.297c-.766 2.139-1.629 2.81-3.45 2.81-.127-.035-.577-.035-.734-.067z"/></svg>