<svg xmlns="http://www.w3.org/2000/svg" width="393" height="450" fill="none"><g fill="#153B61" style="mix-blend-mode:screen"><path d="M408.623 515.266c-2.701 9.273-5.427 13.182-8.227 13.485-9.093 1.128-18.459-36.237-26.76-48.18-24.257-34.807-69.161-51.507-98.677-60.867-22.548-7.179-44.929-26.252-64.23-53.575-3.618-5.117-8.821-7.842-14.148-8.202h-.174c-5.327.36-10.53 3.079-14.148 8.202-19.302 27.323-41.682 46.39-64.205 53.575-29.517 9.354-74.44 26.06-98.703 60.867-8.3 11.943-17.666 49.308-26.76 48.18-2.8-.303-5.525-4.212-8.226-13.485-7.409-25.564-5.773-56.574-1.511-83.21C1.56 315.687 95.58 259.968 142.887 201.716c11.274-13.814 18.732-23.744 23.316-35.798.099-.192 2.007-5.203 2.75-6.386 10.233-16.397 18.633-18.299 27.454-19.315h.174c8.82 1.016 17.245 2.918 27.453 19.315.744 1.183 2.652 6.188 2.751 6.386 4.584 12.054 12.042 21.984 23.316 35.798 47.307 58.252 141.32 113.971 160.033 230.34 4.287 26.636 5.922 57.646-1.511 83.21M437.092 389.841c-.396 1.103-1.524.396-2.23-1.251-12.153-31.84-26.023-61.827-44.717-89.343-26.37-39.638-64.014-66.912-102.618-90.34-2.676-1.561-2.143-3.462.818-2.75 78.292 17.939 141.549 94.744 148.846 183.374l-.099.304zM456.599 325.753c-.273.768-1.06.273-1.555-.873-8.462-22.164-18.113-43.039-31.127-62.186-18.354-27.59-44.557-46.576-71.435-62.886-1.864-1.084-1.492-2.41.57-1.914 54.499 12.488 98.535 65.952 103.615 127.649zM-44.092 384.452c.396 1.102 1.524.396 2.23-1.252 12.153-31.839 26.023-61.826 44.718-89.342 26.37-39.638 64.013-66.912 102.617-90.34 2.676-1.561 2.143-3.462-.818-2.75-78.292 17.939-141.55 94.744-148.846 183.374l.099.304zM-63.598 320.364c.272.768 1.059.273 1.554-.873 8.462-22.164 18.113-43.039 31.127-62.186 18.355-27.59 44.557-46.576 71.435-62.886 1.864-1.084 1.493-2.41-.57-1.914-54.499 12.488-98.535 65.952-103.615 127.648z"/></g></svg>