<svg xmlns="http://www.w3.org/2000/svg" xml:space="preserve" width="1200" height="1200"><g fill="#461300"><path d="m833.92 769.125-670.556 12.159c-17.451-2.091-29.612-18.265-36.233-29.944 507.658-1.812 863.189-88.811 974.352-120.012C981.315 773.803 833.92 769.125 833.92 769.125"/><path d="M101.359 728.142s12.606-.862 18.315 7.901c548.173-1.011 919.533-101.982 998.302-125.411 4.234-5.639 8.369-11.435 12.503-17.454 0 0 43.174-60.873 1.106-57.549 0 0-3.986-.221-11.124-.641 1.651-8.157-1.55-15.852-7.777-17.941l-1.454-.48c-6.967-2.277-15.063 3.237-18.091 12.297l-1.502 4.504c-74.78-4.074-231.722-11.889-267.684-7.717l-133.882-67.48s7.753-9.97-11.076-18.831c0 0-189.215-29.857-345.225-17.722 0 0-11.049 6.633-1.106 35.444l13.269 25.404s6.643 9.967 3.323 21.07l-9.97 56.416s1.131 9.97-17.699 12.161L167.77 586.537s-22.102 3.273-29.859 29.86L103.6 668.381s-7.729 7.804-16.589 8.864c0 0-35.422-4.435-36.553 15.506 0-.004-8.811 22.123 50.901 35.391m692.713-204.699-165.188 8.604-47.313-69.942c50.51-2.389 94.125-1.749 94.125-1.749zm-362.923-30.964c12.259-17.821 74.116-25.82 132.552-29.39l47.287 69.906-135.604 7.092c-35.396-2.218-44.235-47.608-44.235-47.608"/></g></svg>