<svg xmlns="http://www.w3.org/2000/svg" width="42" height="16" fill="none"><g fill="#fff"><path d="M19.662 7.785v4.653h-1.477V.946H22.1c.992 0 1.838.33 2.53.992q1.062.993 1.062 2.424c0 .976-.354 1.784-1.061 2.438q-1.03.979-2.531.977H19.66zm0-5.423v4.007h2.469c.584 0 1.077-.2 1.461-.592.393-.392.593-.87.593-1.408 0-.53-.2-1-.593-1.392-.384-.408-.869-.608-1.461-.608h-2.47zM29.554 4.316q1.638 0 2.584.877.945.876.946 2.4v4.846h-1.407v-1.093h-.062c-.608.9-1.423 1.346-2.438 1.346-.87 0-1.593-.253-2.177-.769q-.877-.771-.877-1.923 0-1.223.923-1.938c.615-.485 1.438-.723 2.461-.723q1.317 0 2.162.484v-.338c0-.516-.2-.946-.608-1.308a2.09 2.09 0 0 0-1.43-.538q-1.237-.002-1.954 1.046l-1.3-.816c.715-1.038 1.777-1.553 3.177-1.553m-1.908 5.707c0 .385.161.708.492.962.323.254.708.384 1.146.384q.934 0 1.662-.692c.484-.461.73-1 .73-1.623q-.69-.545-1.922-.546c-.6 0-1.1.146-1.5.43-.408.3-.608.662-.608 1.085M41.115 4.57l-4.923 11.322h-1.523l1.83-3.961-3.245-7.362h1.607l2.339 5.646h.03l2.277-5.646z"/></g><path fill="#4285F4" d="M13.787 6.846q-.002-.721-.123-1.385h-6.19v2.538h3.565a3.05 3.05 0 0 1-1.323 2.045v1.647h2.122c1.24-1.147 1.95-2.842 1.95-4.845"/><path fill="#34A853" d="M9.717 10.045c-.591.398-1.352.631-2.242.631-1.719 0-3.177-1.158-3.7-2.72H1.586v1.699a6.59 6.59 0 0 0 5.89 3.629c1.78 0 3.275-.586 4.363-1.593z"/><path fill="#FABB05" d="M3.569 6.696c0-.438.073-.862.206-1.26V3.737h-2.19c-.448.89-.7 1.895-.7 2.96s.253 2.069.7 2.959l2.19-1.699a4 4 0 0 1-.206-1.26"/><path fill="#E94235" d="M7.475 2.716c.972 0 1.842.334 2.529.988l1.88-1.88C10.742.762 9.253.109 7.475.109a6.59 6.59 0 0 0-5.889 3.63l2.19 1.698c.522-1.562 1.98-2.72 3.7-2.72"/></svg>