<svg xmlns="http://www.w3.org/2000/svg" width="23" height="14" fill="none"><path fill="#ED0006" d="M15.577.03c3.745 0 6.781 3 6.781 6.7s-3.036 6.7-6.78 6.7a6.8 6.8 0 0 1-4.4-1.603A6.8 6.8 0 0 1 6.78 13.43c-3.744 0-6.78-3-6.78-6.7S3.036.03 6.78.03c1.679 0 3.215.604 4.399 1.603A6.8 6.8 0 0 1 15.577.03"/><path fill="#F9A000" d="M15.577.03c3.745 0 6.78 3 6.78 6.7s-3.035 6.7-6.78 6.7a6.8 6.8 0 0 1-4.398-1.603 6.65 6.65 0 0 0 2.383-5.097 6.65 6.65 0 0 0-2.383-5.097A6.8 6.8 0 0 1 15.577.03"/><path fill="#FF5E00" d="M11.179 1.633A6.65 6.65 0 0 1 13.56 6.73a6.65 6.65 0 0 1-2.383 5.097A6.65 6.65 0 0 1 8.798 6.73c0-2.041.924-3.869 2.381-5.097"/></svg>