<svg width="40" height="40" viewBox="0 0 40 40" fill="none" xmlns="http://www.w3.org/2000/svg">
<rect width="40" height="40" rx="20" fill="#E11F26"/>
<path d="M23.05 13C24.0267 13.1906 24.9244 13.6683 25.6281 14.3719C26.3317 15.0756 26.8094 15.9733 27 16.95M23.05 9C25.0793 9.22544 26.9716 10.1342 28.4162 11.577C29.8609 13.0198 30.772 14.911 31 16.94M30 24.92V27.92C30.0011 28.1985 29.9441 28.4742 29.8325 28.7293C29.7209 28.9845 29.5573 29.2136 29.3521 29.4019C29.1468 29.5901 28.9046 29.7335 28.6407 29.8227C28.3769 29.9119 28.0974 29.9451 27.82 29.92C24.7428 29.5856 21.787 28.5341 19.19 26.85C16.7738 25.3147 14.7253 23.2662 13.19 20.85C11.5 18.2412 10.4482 15.271 10.12 12.18C10.095 11.9035 10.1279 11.6248 10.2165 11.3616C10.3051 11.0985 10.4476 10.8567 10.6348 10.6516C10.822 10.4466 11.0498 10.2827 11.3038 10.1705C11.5578 10.0583 11.8323 10.0003 12.11 10H15.11C15.5953 9.99522 16.0658 10.1671 16.4338 10.4835C16.8017 10.8 17.0421 11.2394 17.11 11.72C17.2366 12.6801 17.4714 13.6227 17.81 14.53C17.9445 14.8879 17.9737 15.2769 17.8939 15.6509C17.8141 16.0248 17.6289 16.3681 17.36 16.64L16.09 17.91C17.5135 20.4135 19.5864 22.4864 22.09 23.91L23.36 22.64C23.6319 22.3711 23.9751 22.1858 24.3491 22.1061C24.7231 22.0263 25.1121 22.0555 25.47 22.19C26.3773 22.5286 27.3199 22.7634 28.28 22.89C28.7658 22.9585 29.2094 23.2032 29.5265 23.5775C29.8437 23.9518 30.0122 24.4296 30 24.92Z" stroke="white" stroke-width="2" stroke-linecap="round" stroke-linejoin="round"/>
</svg>
