<svg xmlns="http://www.w3.org/2000/svg" width="40" height="40" fill="none"><rect width="40" height="40" fill="#FFEAEC" rx="20"/><path stroke="#EB1B35" stroke-linecap="round" stroke-linejoin="round" stroke-width="2" d="M23.05 13A5 5 0 0 1 27 16.95M23.05 9A9 9 0 0 1 31 16.94m-1 7.98v3a2 2 0 0 1-2.18 2 19.8 19.8 0 0 1-8.63-3.07 19.5 19.5 0 0 1-6-6 19.8 19.8 0 0 1-3.07-8.67A2 2 0 0 1 12.11 10h3a2 2 0 0 1 2 1.72c.127.96.361 1.903.7 2.81a2 2 0 0 1-.45 2.11l-1.27 1.27a16 16 0 0 0 6 6l1.27-1.27a2 2 0 0 1 2.11-.45c.907.339 1.85.573 2.81.7A2 2 0 0 1 30 24.92"/></svg>