<?xml version="1.0" encoding="utf-8"?>
<!-- Designed by Vexels.com - 2016 All Rights Reserved - https://vexels.com/terms-and-conditions/  -->

<svg version="1.1" id="Capa_1" xmlns="http://www.w3.org/2000/svg" xmlns:xlink="http://www.w3.org/1999/xlink" x="0px" y="0px"
	 width="1200px" height="1200px" viewBox="0 0 1200 1200" enable-background="new 0 0 1200 1200" xml:space="preserve">
<g>
	<g>
		<path fill="#461300" d="M833.92,769.125l-670.556,12.159c-17.451-2.091-29.612-18.265-36.233-29.944
			c507.658-1.812,863.189-88.811,974.352-120.012C981.315,773.803,833.92,769.125,833.92,769.125z"/>
		<path fill="#461300" d="M101.359,728.142c0,0,12.606-0.862,18.315,7.901c548.173-1.011,919.533-101.982,998.302-125.411
			c4.234-5.639,8.369-11.435,12.503-17.454c0,0,43.174-60.873,1.106-57.549c0,0-3.986-0.221-11.124-0.641
			c1.651-8.157-1.55-15.852-7.777-17.941l-1.454-0.48c-6.967-2.277-15.063,3.237-18.091,12.297l-1.502,4.504
			c-74.78-4.074-231.722-11.889-267.684-7.717l-133.882-67.48c0,0,7.753-9.97-11.076-18.831c0,0-189.215-29.857-345.225-17.722
			c0,0-11.049,6.633-1.106,35.444l13.269,25.404c0,0,6.643,9.967,3.323,21.07l-9.97,56.416c0,0,1.131,9.97-17.699,12.161
			L167.77,586.537c0,0-22.102,3.273-29.859,29.86L103.6,668.381c0,0-7.729,7.804-16.589,8.864c0,0-35.422-4.435-36.553,15.506
			C50.458,692.747,41.647,714.874,101.359,728.142z M794.072,523.443l-165.188,8.604l-47.313-69.942
			c50.51-2.389,94.125-1.749,94.125-1.749L794.072,523.443z M431.149,492.479c12.259-17.821,74.116-25.82,132.552-29.39
			l47.287,69.906l-135.604,7.092C439.988,537.869,431.149,492.479,431.149,492.479z"/>
	</g>
</g>
</svg>
